<svg width="28" height="41" viewBox="0 0 28 41" fill="none" xmlns="http://www.w3.org/2000/svg">
    <g clip-path="url(#sgsz72g1fa)">
        <path d="M20.365 10.336H7.728c-.777 0-1.41.632-1.41 1.41v.52c0 .777.632 1.41 1.41 1.41h12.637c.777 0 1.41-.632 1.41-1.41v-.52c0-.777-.632-1.41-1.41-1.41zm.443 1.93a.444.444 0 0 1-.444.443H7.728a.444.444 0 0 1-.444-.444v-.518c0-.245.2-.444.444-.444h12.637c.245 0 .444.199.444.444v.518h-.001z" fill="#EA6C3B"/>
        <g style="mix-blend-mode:multiply" opacity=".3" fill="#EA6C3B">
            <path d="M20.365 11.047H7.728a.444.444 0 0 0-.444.444v.26c0-.246.2-.445.444-.445h12.637c.245 0 .444.2.444.444v-.26a.444.444 0 0 0-.444-.443zM20.365 13.418H7.728c-.777 0-1.41-.632-1.41-1.41v.26c0 .777.632 1.41 1.41 1.41h12.637c.777 0 1.41-.633 1.41-1.41v-.26c0 .777-.632 1.41-1.41 1.41z"/>
        </g>
        <path d="M20.213 12.79H7.736a.12.12 0 1 0 0 .24h12.477a.12.12 0 1 0 0-.24z" fill="#EA6C3B"/>
        <path d="M12.034-.016H2.692L7.35 11.127c.05.208.237.354.45.354h9.002L12.034-.016z" fill="#25AEF2"/>
        <path d="M12.034-.016H2.692L7.35 11.127c.05.208.237.354.45.354h9.002L12.034-.016z" fill="#25AEF2" style="mix-blend-mode:multiply" opacity=".5"/>
        <path d="M18.42 12.008H9.673a.66.66 0 0 0-.66.659v3.568c0 .364.296.66.66.66h8.745a.66.66 0 0 0 .66-.66v-3.568a.66.66 0 0 0-.66-.66z" fill="#EA6C3B"/>
        <path d="M18.11 12.125H9.981c-.338 0-.612.288-.612.644v3.485c0 .355.274.644.612.644h8.127c.338 0 .612-.289.612-.644v-3.485c0-.356-.273-.644-.612-.644z" fill="#EA6C3B" style="mix-blend-mode:screen" opacity=".3"/>
        <path d="M18.186 12.772H9.862a.183.183 0 1 1 0-.366h8.324a.183.183 0 1 1 0 .366z" fill="#EA6C3B" style="mix-blend-mode:screen" opacity=".5"/>
        <path d="M11.197 11.482h5.605l-4.12-8.841-1.485 8.841z" fill="#25AEF2" style="mix-blend-mode:multiply" opacity=".5"/>
        <path d="m15.964-.016-4.767 11.498h8.874c.29 0 .54-.197.609-.479L25.346-.016H15.964z" fill="#25AEF2"/>
        <path d="m7.28 10.844.069.28c.05.209.237.355.45.355H20.07c.29 0 .54-.198.61-.479l.037-.156H7.28z" fill="#25AEF2" style="mix-blend-mode:multiply" opacity=".2"/>
        <path d="M13.999 40.828c7.732 0 14-6.268 14-14s-6.268-14-14-14-14 6.268-14 14 6.268 14 14 14z" fill="#EA6C3B"/>
        <path d="M.386 27.214c0-7.732 6.268-14 14-14a13.95 13.95 0 0 1 9.704 3.91A13.961 13.961 0 0 0 14 12.828c-7.732 0-14 6.269-14 14 0 3.965 1.648 7.543 4.296 10.091a13.952 13.952 0 0 1-3.91-9.704v-.001z" fill="#EA6C3B" style="mix-blend-mode:screen" opacity=".5"/>
        <path d="M25.159 18.375a13.935 13.935 0 0 1 2.377 7.807c0 7.732-6.268 14-14 14a13.976 13.976 0 0 1-11.158-5.546A13.985 13.985 0 0 0 14 40.83c7.732 0 14-6.268 14-14 0-3.177-1.058-6.106-2.841-8.455z" fill="#EA6C3B" style="mix-blend-mode:multiply" opacity=".5"/>
        <path d="M22.61 35.44c4.757-4.756 4.757-12.467 0-17.223-4.755-4.756-12.466-4.756-17.222 0-4.756 4.756-4.756 12.467 0 17.223 4.756 4.756 12.467 4.756 17.223 0z" fill="#EA6C3B" style="mix-blend-mode:multiply" opacity=".5"/>
        <path d="M22.097 34.925c4.471-4.472 4.471-11.722 0-16.194-4.472-4.472-11.723-4.472-16.194 0-4.472 4.472-4.472 11.722 0 16.194 4.471 4.472 11.722 4.472 16.194 0z" fill="#EA6C3B"/>
        <path d="M21.587 34.407c4.19-4.19 4.19-10.984 0-15.174-4.19-4.19-10.983-4.19-15.174 0-4.19 4.19-4.19 10.984 0 15.174 4.19 4.19 10.984 4.19 15.174 0z" fill="#EA6C3B"/>
        <g opacity=".5" fill="#C94C27">
            <path d="M17.44 18.017c-.01-.157-.023-.316-.04-.475a.643.643 0 0 0-.252-.432.752.752 0 0 0-.238-.126.709.709 0 0 0-.273-.037c.034.155.063.314.09.472a.747.747 0 0 0 .463.544.72.72 0 0 0 .25.055v-.001zM16.484 18.161a8.18 8.18 0 0 0-.322.326.621.621 0 0 0 .413.177c.147.01.3-.041.423-.144a12.9 12.9 0 0 1 .357-.289.687.687 0 0 0-.2-.156.664.664 0 0 0-.236-.064.55.55 0 0 0-.435.151zM18.611 18.672c.015-.173.025-.348.03-.521a.702.702 0 0 0-.21-.51.855.855 0 0 0-.535-.258c.014.177.024.352.03.526.008.181.086.36.209.491a.903.903 0 0 0 .213.174c.04.023.083.042.127.058.043.017.09.031.136.04zM17.553 18.675c-.136.1-.268.201-.396.304a.68.68 0 0 0 .897.166 8.21 8.21 0 0 1 .432-.256.793.793 0 0 0-.087-.113.794.794 0 0 0-.107-.088.7.7 0 0 0-.244-.11.602.602 0 0 0-.494.097h-.001zM19.75 19.54c.044-.185.081-.368.116-.555a.707.707 0 0 0-.011-.301.912.912 0 0 0-.37-.514.885.885 0 0 0-.305-.139c-.01.19-.027.382-.048.57-.01.1 0 .2.026.294a.93.93 0 0 0 .325.492c.078.065.17.113.267.152zM18.612 19.369c-.16.084-.317.17-.471.264.049.082.108.155.177.212.07.056.148.098.23.129a.71.71 0 0 0 .26.04.68.68 0 0 0 .266-.058c.166-.07.336-.14.505-.201a.741.741 0 0 0-.174-.25.71.71 0 0 0-.246-.157.639.639 0 0 0-.546.021h-.001zM20.86 20.738c.077-.185.155-.376.225-.567.036-.101.049-.21.04-.322a.937.937 0 0 0-.03-.167 1.041 1.041 0 0 0-.578-.658c-.044.2-.096.403-.15.599a.944.944 0 0 0 .06.627c.087.2.236.372.432.489v-.001zM19.68 20.34a9.605 9.605 0 0 0-.547.194.812.812 0 0 0 .637.524.779.779 0 0 0 .295-.012c.19-.045.379-.082.573-.116a.852.852 0 0 0-.372-.514.701.701 0 0 0-.586-.078v.001zM21.816 22.252a11.657 11.657 0 0 0 .35-.55.82.82 0 0 0 .107-.333 1.083 1.083 0 0 0-.037-.37 1.144 1.144 0 0 0-.454-.632c-.085.206-.172.405-.268.604a1.03 1.03 0 0 0-.059.676c.014.056.033.112.055.166.022.054.047.108.077.16.06.101.138.195.228.278l.001.001zM20.65 21.59a9.69 9.69 0 0 0-.616.1.87.87 0 0 0 .88.722 10.168 10.168 0 0 1 .628-.002.87.87 0 0 0-.177-.492.893.893 0 0 0-.116-.125.75.75 0 0 0-.602-.201l.003-.001zM22.445 23.83c.16-.163.32-.334.472-.51a.948.948 0 0 0 .2-.726 1.364 1.364 0 0 0-.039-.207 1.344 1.344 0 0 0-.185-.387 1.214 1.214 0 0 0-.143-.164 11.796 11.796 0 0 1-.39.587 1.133 1.133 0 0 0-.183.7c.015.248.103.497.266.706l.002.001zM21.338 22.91a9.154 9.154 0 0 0-.664-.01c0 .06.006.115.018.17a.852.852 0 0 0 .114.305.937.937 0 0 0 .662.445c.22.033.439.074.66.123a.976.976 0 0 0-.19-.706.925.925 0 0 0-.266-.231.78.78 0 0 0-.333-.095zM22.803 25.661a11.81 11.81 0 0 0 .598-.43.9.9 0 0 0 .249-.307c.058-.122.095-.263.109-.41a1.41 1.41 0 0 0-.04-.451 1.374 1.374 0 0 0-.195-.422 12.63 12.63 0 0 1-.523.532c-.095.09-.17.198-.224.316a1.13 1.13 0 0 0-.067.183 1.234 1.234 0 0 0-.051.393 1.283 1.283 0 0 0 .066.401c.02.066.045.132.077.195h.001zM21.836 24.468a11.47 11.47 0 0 0-.693-.148.919.919 0 0 0-.003.354.9.9 0 0 0 .116.319c.054.1.129.189.22.265a.97.97 0 0 0 .309.183 8.996 8.996 0 0 1 .665.27 1.15 1.15 0 0 0 .046-.2 1.2 1.2 0 0 0-.031-.395 1.146 1.146 0 0 0-.172-.344.858.858 0 0 0-.457-.303v-.001zM22.805 27.528a9.991 9.991 0 0 0 .708-.319.94.94 0 0 0 .321-.27 1.284 1.284 0 0 0 .236-.641c.007-.08.008-.163.003-.246a1.329 1.329 0 0 0-.122-.482 13.73 13.73 0 0 1-.32.232l-.162.11-.166.107c-.235.15-.389.388-.48.654a1.254 1.254 0 0 0-.05.205 1.44 1.44 0 0 0-.023.213c-.003.145.017.292.055.438zM22.032 26.082l-.17-.079-.175-.075c-.117-.049-.233-.095-.35-.139-.091.243-.093.49-.011.717.037.113.097.22.178.318.076.098.17.184.285.253a10.176 10.176 0 0 1 .64.421.96.96 0 0 0 .13-.404c.007-.07.009-.14.005-.21a1.22 1.22 0 0 0-.04-.203.92.92 0 0 0-.491-.598zM22.406 29.487c.265-.046.538-.1.803-.167.28-.07.53-.287.678-.587a1.383 1.383 0 0 0 .15-.492 1.453 1.453 0 0 0-.025-.53c-.256.12-.504.229-.765.325-.137.052-.26.13-.364.23a1.406 1.406 0 0 0-.272.34c-.147.257-.224.56-.205.88zM21.914 27.82a9.415 9.415 0 0 0-.66-.453 1.137 1.137 0 0 0-.15.356 1.155 1.155 0 0 0-.012.373c.038.248.151.494.36.69.198.184.382.376.57.58a1.11 1.11 0 0 0 .162-1.23.963.963 0 0 0-.271-.318v.001zM21.567 31.378c.289.02.573.023.865.018.31-.002.607-.173.832-.445.222-.273.364-.649.354-1.03-.284.068-.578.12-.861.161-.151.023-.291.077-.426.15a1.482 1.482 0 0 0-.355.29c-.21.228-.355.522-.409.855zM21.43 29.552a9.621 9.621 0 0 0-.583-.614 1.082 1.082 0 0 0-.323.704c-.002.067-.003.133.003.199a1.319 1.319 0 0 0 .215.59c.16.235.317.481.457.73a1.144 1.144 0 0 0 .48-.889c0-.037 0-.075-.003-.113a1.165 1.165 0 0 0-.037-.22.955.955 0 0 0-.21-.388v.001zM20.256 33.115l.218.067.218.06c.147.039.295.075.446.109a.979.979 0 0 0 .488-.015c.164-.045.328-.124.472-.239a1.86 1.86 0 0 0 .208-.19 1.797 1.797 0 0 0 .311-.494c.037-.093.065-.19.086-.288a10.288 10.288 0 0 1-.922-.042 1.234 1.234 0 0 0-.47.052c-.155.044-.301.114-.432.208a1.569 1.569 0 0 0-.362.332 1.438 1.438 0 0 0-.145.206c-.043.074-.08.153-.115.234h-.001zM20.54 31.22c-.14-.262-.298-.521-.46-.767-.062.038-.118.08-.168.127-.05.048-.1.096-.14.15a1.011 1.011 0 0 0-.104.172.998.998 0 0 0-.077.187c-.02.065-.031.135-.041.204-.01.068-.013.139-.01.212.007.145.038.296.094.442.107.277.212.57.295.86.04-.015.078-.032.115-.05a1.378 1.378 0 0 0 .29-.221c.114-.116.198-.259.258-.404.054-.15.08-.308.074-.462a1.068 1.068 0 0 0-.127-.45zM18.596 34.496c.274.164.555.314.848.459.155.076.324.106.504.103.088-.003.182-.012.271-.035a1.734 1.734 0 0 0 1.115-.946 12.775 12.775 0 0 1-.937-.262 1.31 1.31 0 0 0-.62-.048 1.493 1.493 0 0 0-.367.093 2.484 2.484 0 0 0-.23.108c-.075.041-.147.09-.215.143-.139.104-.263.233-.37.385h.002zM19.324 32.634c-.089-.306-.19-.605-.298-.892-.148.044-.27.118-.377.206-.11.085-.192.2-.264.319a1.372 1.372 0 0 0-.15.882c.045.308.081.628.1.948.173-.022.333-.087.477-.174a1.28 1.28 0 0 0 .356-.35c.045-.07.084-.144.115-.219a1.138 1.138 0 0 0 .041-.72zM16.608 35.451c.237.233.488.462.752.683.138.114.306.191.49.232a1.34 1.34 0 0 0 .287.03 1.652 1.652 0 0 0 .598-.114 2.14 2.14 0 0 0 .288-.139 1.91 1.91 0 0 0 .485-.436 9.51 9.51 0 0 1-.457-.239c-.15-.083-.297-.168-.44-.255a1.494 1.494 0 0 0-.755-.212c-.089-.003-.177 0-.265.012-.173.026-.35.066-.515.142-.081.04-.164.077-.243.127a1.55 1.55 0 0 0-.227.17h.002zM17.79 33.745a10.635 10.635 0 0 0-.1-.98c-.077.009-.152.02-.224.038a.934.934 0 0 0-.201.078.995.995 0 0 0-.183.11c-.057.042-.107.095-.157.145-.05.053-.095.11-.135.174a1.44 1.44 0 0 0-.224.68c-.027.325-.07.655-.126.988a1.253 1.253 0 0 0 .528-.056c.165-.06.322-.142.446-.264.126-.117.228-.255.291-.414a1.11 1.11 0 0 0 .087-.5l-.001.001zM14.82 35.853c.197.289.41.578.637.858.119.145.275.26.457.342.091.043.188.07.289.09a1.6 1.6 0 0 0 .64.007c.108-.019.218-.044.324-.084a2.11 2.11 0 0 0 .452-.239 1.93 1.93 0 0 0 .134-.11 11.466 11.466 0 0 1-.83-.689 1.595 1.595 0 0 0-.732-.37 1.933 1.933 0 0 0-1.371.196zM16.37 34.36a10 10 0 0 0 .083-1.023 1.182 1.182 0 0 0-.455.029c-.07.022-.14.042-.206.075-.066.03-.128.073-.188.116a1.305 1.305 0 0 0-.32.333 1.508 1.508 0 0 0-.215.463c-.091.329-.201.653-.326.984.09.029.182.047.275.057a1.264 1.264 0 0 0 .786-.179c.076-.047.147-.1.211-.159a1.198 1.198 0 0 0 .353-.697h.002zM15.052 17.401a.917.917 0 0 0 .287.305c.06.041.127.083.199.115.071.034.149.056.228.08.08.021.16.033.24.038.078.004.154.006.227-.004a.967.967 0 0 0 .388-.132.771.771 0 0 0-.25-.346 1.04 1.04 0 0 0-.203-.135 1.351 1.351 0 0 0-.244-.09 1.065 1.065 0 0 0-.258-.036 1.009 1.009 0 0 0-.24.02.802.802 0 0 0-.374.186V17.4z"/>
        </g>
        <g opacity=".5" fill="#C94C27">
            <path d="M10.655 18.017c.01-.157.024-.316.04-.475a.643.643 0 0 1 .252-.432.752.752 0 0 1 .238-.126.71.71 0 0 1 .274-.037c-.034.155-.063.314-.09.472a.747.747 0 0 1-.463.544.72.72 0 0 1-.25.055v-.001zM11.611 18.161c.11.107.217.214.322.326a.622.622 0 0 1-.836.033 12.9 12.9 0 0 0-.357-.289.687.687 0 0 1 .2-.156.665.665 0 0 1 .235-.064.55.55 0 0 1 .436.151zM9.484 18.672a9.415 9.415 0 0 1-.03-.521.703.703 0 0 1 .21-.51.856.856 0 0 1 .535-.258 13.22 13.22 0 0 0-.03.526.782.782 0 0 1-.209.491.904.904 0 0 1-.212.174.798.798 0 0 1-.128.058.861.861 0 0 1-.136.04zM10.542 18.675c.136.1.268.201.396.304a.68.68 0 0 1-.897.166 8.233 8.233 0 0 0-.432-.256.79.79 0 0 1 .087-.113.7.7 0 0 1 .35-.198.602.602 0 0 1 .495.097h.001zM8.345 19.54a10.739 10.739 0 0 1-.116-.555.707.707 0 0 1 .011-.301.912.912 0 0 1 .37-.514.885.885 0 0 1 .305-.139c.01.19.027.382.048.57.01.1 0 .2-.026.294a.933.933 0 0 1-.324.492c-.079.065-.171.113-.268.152zM9.483 19.369c.16.084.317.17.472.264a.814.814 0 0 1-.178.212.819.819 0 0 1-.23.129.71.71 0 0 1-.26.04.68.68 0 0 1-.266-.058 9.664 9.664 0 0 0-.505-.201.743.743 0 0 1 .174-.25.71.71 0 0 1 .246-.157.638.638 0 0 1 .546.021h.001zM7.234 20.738a11.71 11.71 0 0 1-.226-.567.755.755 0 0 1-.04-.322.939.939 0 0 1 .03-.167 1.041 1.041 0 0 1 .578-.658c.044.2.096.403.15.599a.944.944 0 0 1-.06.627 1.063 1.063 0 0 1-.432.489v-.001zM8.413 20.34c.187.06.366.122.547.194a.812.812 0 0 1-.637.524.779.779 0 0 1-.295-.012c-.19-.045-.379-.082-.573-.116a.848.848 0 0 1 .372-.514.701.701 0 0 1 .586-.078v.001zM6.28 22.252a11.625 11.625 0 0 1-.35-.55.821.821 0 0 1-.108-.333c-.01-.119.004-.244.038-.37.07-.246.23-.483.453-.632.086.206.173.405.268.604.102.21.11.448.06.676a1.108 1.108 0 0 1-.056.166 1.162 1.162 0 0 1-.076.16c-.06.101-.139.195-.229.278v.001zM7.446 21.59c.206.026.415.061.616.1a.87.87 0 0 1-.88.722 10.175 10.175 0 0 0-.628-.002.87.87 0 0 1 .177-.492.896.896 0 0 1 .116-.125.75.75 0 0 1 .602-.201l-.003-.001zM5.65 23.83c-.16-.163-.32-.334-.473-.51a.948.948 0 0 1-.2-.726c.008-.068.02-.138.04-.207A1.346 1.346 0 0 1 5.2 22a1.21 1.21 0 0 1 .144-.164 11.74 11.74 0 0 0 .39.587c.071.1.12.213.149.33a1.274 1.274 0 0 1-.233 1.076l-.002.001zM6.756 22.91c.22-.011.444-.014.665-.01a.838.838 0 0 1-.018.17.862.862 0 0 1-.114.305.936.936 0 0 1-.662.445c-.22.033-.439.074-.661.123a.975.975 0 0 1 .191-.706.925.925 0 0 1 .265-.231.78.78 0 0 1 .333-.095h.001zM5.292 25.661a11.811 11.811 0 0 1-.598-.43.901.901 0 0 1-.249-.307 1.227 1.227 0 0 1-.109-.41 1.412 1.412 0 0 1 .04-.451c.04-.15.108-.293.195-.422.171.185.346.363.523.532.095.09.17.198.224.316.028.059.05.12.066.183a1.226 1.226 0 0 1 .052.393 1.274 1.274 0 0 1-.066.401c-.02.066-.045.132-.077.195h-.001zM6.26 24.468c.233-.058.464-.107.692-.148.026.123.024.241.004.354a.899.899 0 0 1-.116.319.942.942 0 0 1-.22.265.972.972 0 0 1-.31.183 8.999 8.999 0 0 0-.664.27 1.15 1.15 0 0 1-.047-.2 1.19 1.19 0 0 1 .031-.395 1.148 1.148 0 0 1 .172-.344.865.865 0 0 1 .457-.303v-.001zM5.291 27.528a10.645 10.645 0 0 1-.708-.319.94.94 0 0 1-.322-.27 1.284 1.284 0 0 1-.236-.641 1.663 1.663 0 0 1-.002-.246c.007-.165.053-.33.122-.482.106.08.213.157.32.232l.161.11.166.107c.236.15.39.388.481.654.022.066.038.135.049.205.012.07.021.14.023.213.004.145-.017.292-.054.438zM6.064 26.082l.17-.079.176-.075c.117-.049.233-.095.349-.139.091.243.093.49.012.717a.998.998 0 0 1-.178.318c-.077.098-.171.184-.286.253a10.034 10.034 0 0 0-.64.421.953.953 0 0 1-.129-.404c-.008-.07-.01-.14-.006-.21.008-.069.021-.137.04-.203a.92.92 0 0 1 .491-.598h.001zM5.69 29.487c-.265-.046-.539-.1-.804-.167-.279-.07-.53-.287-.677-.587a1.384 1.384 0 0 1-.15-.492 1.452 1.452 0 0 1 .025-.53c.255.12.504.229.765.325.136.052.259.13.363.23.105.098.202.212.273.34.146.257.224.56.204.88zM6.181 27.82c.212-.161.439-.313.66-.453.075.114.119.235.15.356.027.123.025.25.012.373a1.18 1.18 0 0 1-.36.69c-.198.184-.382.376-.57.58a1.11 1.11 0 0 1-.161-1.23.964.964 0 0 1 .27-.318v.001zM6.527 31.378c-.288.02-.572.023-.864.018-.31-.002-.607-.173-.832-.445a1.603 1.603 0 0 1-.354-1.03c.284.068.578.12.861.161.15.023.291.077.426.15.134.075.248.177.355.29.21.228.355.522.408.855zM6.664 29.552a9.59 9.59 0 0 1 .582-.614c.2.198.306.442.324.704.002.067.003.133-.003.199a1.32 1.32 0 0 1-.215.59c-.16.235-.317.481-.457.73a1.144 1.144 0 0 1-.48-.889c0-.037 0-.075.003-.113.006-.075.018-.15.037-.22a.956.956 0 0 1 .209-.388v.001zM7.84 33.115l-.219.067-.218.06c-.147.039-.295.075-.446.109a.98.98 0 0 1-.488-.015 1.298 1.298 0 0 1-.471-.239 1.856 1.856 0 0 1-.209-.19 1.797 1.797 0 0 1-.311-.494 1.864 1.864 0 0 1-.085-.288c.311-.001.614-.013.921-.042.161-.015.32.006.47.052.155.044.301.114.433.208.137.088.256.202.36.332.055.064.103.133.146.206.042.074.08.153.115.234h.001zM7.556 31.22c.14-.262.297-.521.458-.767.063.038.12.08.17.127.05.048.1.096.139.15.041.053.075.111.105.172a1 1 0 0 1 .076.187c.02.065.032.135.041.204.01.068.013.139.01.212a1.425 1.425 0 0 1-.093.442c-.108.277-.212.57-.296.86a1.205 1.205 0 0 1-.115-.05 1.34 1.34 0 0 1-.29-.22 1.262 1.262 0 0 1-.257-.405 1.223 1.223 0 0 1-.075-.462c.009-.156.052-.31.127-.45zM9.498 34.496c-.273.164-.554.314-.847.459a1.074 1.074 0 0 1-.504.103 1.258 1.258 0 0 1-.271-.035 1.67 1.67 0 0 1-.269-.096 1.73 1.73 0 0 1-.846-.85c.321-.078.632-.164.937-.262a1.309 1.309 0 0 1 .62-.048 1.49 1.49 0 0 1 .367.093c.076.032.154.067.23.108.075.041.147.09.214.143.14.104.264.233.37.385zM8.771 32.634c.089-.306.19-.605.298-.892.148.044.27.118.377.206.11.085.192.2.265.319a1.372 1.372 0 0 1 .15.882c-.046.308-.082.628-.101.948a1.223 1.223 0 0 1-.477-.174 1.281 1.281 0 0 1-.356-.35 1.418 1.418 0 0 1-.115-.219 1.138 1.138 0 0 1-.041-.72zM11.488 35.451c-.237.233-.489.462-.753.683-.138.114-.305.191-.49.232a1.34 1.34 0 0 1-.287.03 1.653 1.653 0 0 1-.597-.114 2.145 2.145 0 0 1-.289-.139 1.912 1.912 0 0 1-.484-.436 9.45 9.45 0 0 0 .457-.239c.15-.083.296-.168.44-.255A1.495 1.495 0 0 1 10.24 35c.088-.003.177 0 .265.012.174.026.35.066.514.142.082.04.165.077.244.127.079.048.154.105.226.17h-.002zM10.305 33.745a10.918 10.918 0 0 1 .1-.98c.077.009.153.02.224.038a.932.932 0 0 1 .202.078c.064.03.126.066.182.11.057.042.107.095.158.145.049.053.094.11.134.174a1.438 1.438 0 0 1 .224.68c.028.325.07.655.126.988a1.253 1.253 0 0 1-.528-.056 1.247 1.247 0 0 1-.445-.264 1.138 1.138 0 0 1-.292-.414 1.113 1.113 0 0 1-.086-.5v.001zM13.275 35.853c-.196.289-.409.578-.636.858-.12.145-.276.26-.458.342-.09.043-.187.07-.288.09a1.6 1.6 0 0 1-.64.007 1.854 1.854 0 0 1-.325-.084 2.11 2.11 0 0 1-.452-.239 1.929 1.929 0 0 1-.133-.11c.287-.214.567-.452.829-.689a1.596 1.596 0 0 1 .733-.37 1.58 1.58 0 0 1 .274-.044c.368-.024.75.041 1.097.24h-.001zM11.726 34.36a9.971 9.971 0 0 1-.082-1.023c.16-.015.315-.014.455.029.07.022.14.042.205.075a1.305 1.305 0 0 1 .508.45c.092.13.166.287.215.462.092.329.201.653.326.984-.09.029-.182.047-.275.057a1.265 1.265 0 0 1-.786-.179 1.394 1.394 0 0 1-.211-.159 1.203 1.203 0 0 1-.353-.697h-.002zM13.043 17.401a.919.919 0 0 1-.287.305 1.288 1.288 0 0 1-.199.115c-.072.034-.149.056-.229.08-.08.021-.16.033-.239.038a1.242 1.242 0 0 1-.227-.004.967.967 0 0 1-.388-.132.771.771 0 0 1 .25-.346c.06-.05.127-.098.202-.135.076-.037.158-.068.245-.09.087-.026.174-.033.258-.036.084-.002.164.003.24.02.15.034.28.098.374.186V17.4z"/>
        </g>
        <path opacity=".5" d="M17.089 27.973a2.538 2.538 0 0 0-.343-.728 2.247 2.247 0 0 0-.5-.52 2.98 2.98 0 0 0-.341-.22.168.168 0 0 1-.016-.284c.26-.184.49-.423.692-.72.265-.387.398-.857.398-1.412 0-.925-.311-1.662-.936-2.21-.623-.55-1.534-.824-2.73-.824-.904 0-1.627.136-2.168.407-.54.272-.81.697-.81 1.275 0 .277.056.517.17.72l.004.006a.639.639 0 0 0 .838.258c.12-.058.25-.112.39-.16.323-.11.697-.164 1.124-.164.477 0 .837.092 1.076.277.24.185.359.428.359.728 0 .636-.375.954-1.123.954h-1.045a.63.63 0 0 0-.617.477c-.046.191-.07.419-.07.685 0 .266.026.474.078.659l.004.014c.078.27.33.454.61.454h1.04c.498 0 .85.087 1.053.26.203.173.303.428.303.763s-.127.607-.382.815c-.254.208-.646.311-1.177.311-.562 0-1.017-.089-1.365-.269a7.442 7.442 0 0 1-.423-.233.654.654 0 0 0-.888.214l-.023.036a1.537 1.537 0 0 0-.203.807c0 .52.276.948.827 1.282.551.336 1.367.503 2.448.503.562 0 1.08-.072 1.552-.217a3.596 3.596 0 0 0 1.225-.632c.343-.277.61-.612.803-1.006.193-.393.288-.837.288-1.334 0-.37-.041-.694-.124-.971l.002-.001z" fill="#C94C27"/>
        <path opacity=".95" d="M13.346 31.892c-1.031 0-1.813-.157-2.323-.467-.478-.291-.71-.643-.71-1.076 0-.267.056-.496.168-.682l.02-.032a.412.412 0 0 1 .56-.136c.13.079.277.16.437.242.38.196.877.296 1.475.296.598 0 1.028-.12 1.33-.367.313-.255.47-.592.47-1.002 0-.41-.13-.726-.388-.947-.25-.214-.646-.318-1.21-.318h-1.04a.391.391 0 0 1-.377-.279l-.003-.011a2.233 2.233 0 0 1-.07-.595c0-.245.021-.456.064-.627a.388.388 0 0 1 .381-.293h1.045c1.188 0 1.365-.749 1.365-1.195a1.11 1.11 0 0 0-.453-.92c-.282-.217-.694-.328-1.224-.328-.45 0-.855.06-1.2.178a3.66 3.66 0 0 0-.42.17.396.396 0 0 1-.52-.159 1.207 1.207 0 0 1-.144-.607c0-.482.222-.829.678-1.058.504-.253 1.197-.382 2.059-.382 1.13 0 1.994.257 2.57.763.574.506.853 1.17.853 2.03 0 .502-.119.931-.355 1.276-.185.27-.398.492-.633.659a.41.41 0 0 0 .04.694c.108.059.213.127.313.2.165.122.315.279.444.465.13.185.234.407.31.659.075.254.114.556.114.901 0 .458-.088.871-.264 1.229a2.73 2.73 0 0 1-.738.924 3.357 3.357 0 0 1-1.143.59 5.072 5.072 0 0 1-1.482.206z" fill="#C94C27"/>
        <path d="M14 16.095c-.243 0-.484.008-.723.024l-9.982 9.983a10.707 10.707 0 0 0 1.226 5.753l14.51-14.51a10.68 10.68 0 0 0-5.032-1.251zM20.059 17.969 5.145 32.884c.468.683 1.013 1.31 1.624 1.867l15.157-15.158a10.806 10.806 0 0 0-1.866-1.624h-.001zM24.729 26.82c0-.533-.04-1.058-.114-1.57L12.43 37.435a10.84 10.84 0 0 0 1.57.114 10.71 10.71 0 0 0 3.393-.548l6.788-6.788c.355-1.067.548-2.208.548-3.393z" fill="#EA6C3B" style="mix-blend-mode:screen" opacity=".3"/>
        <path d="M13.999 37.683c-5.989 0-10.861-4.872-10.861-10.86 0-5.99 4.872-10.862 10.86-10.862 5.99 0 10.862 4.873 10.862 10.861 0 5.989-4.873 10.861-10.861 10.861zm0-21.46C8.155 16.224 3.4 20.979 3.4 26.822 3.401 32.665 8.155 37.42 14 37.42c5.843 0 10.597-4.754 10.597-10.598 0-5.843-4.754-10.597-10.597-10.597z" fill="#EA6C3B"/>
        <path d="M13.999 37.691c-5.989 0-10.861-4.873-10.861-10.861 0-5.989 4.872-10.861 10.86-10.861 5.99 0 10.862 4.872 10.862 10.86 0 5.99-4.873 10.862-10.861 10.862zm0-21.46C8.155 16.231 3.4 20.986 3.4 26.83c0 5.844 4.754 10.598 10.598 10.598 5.843 0 10.597-4.754 10.597-10.598 0-5.843-4.754-10.598-10.597-10.598z" fill="#EA6C3B" style="mix-blend-mode:screen" opacity=".5"/>
        <path d="M7.4 19.886c-1.4-.496-1.783-.9-2.255-2.37-.472 1.47-.856 1.874-2.255 2.37 1.4.496 1.783.899 2.255 2.37.472-1.471.855-1.874 2.255-2.37zM23.472 33.132c-1.324-.47-1.686-.85-2.132-2.241-.447 1.391-.81 1.771-2.132 2.241 1.324.47 1.686.85 2.132 2.241.446-1.391.809-1.771 2.132-2.241zM24.525 35.372c-.653-.232-.832-.42-1.052-1.106-.22.686-.4.874-1.052 1.106.653.232.832.42 1.052 1.106.22-.687.4-.874 1.052-1.106zM8.61 17.2c-.653-.232-.832-.42-1.052-1.106-.22.686-.4.875-1.052 1.106.653.232.832.42 1.052 1.106.22-.686.4-.874 1.052-1.106z" fill="#fff"/>
    </g>
    <defs>
        <clipPath id="sgsz72g1fa">
            <path fill="#fff" d="M0 0h28v40.836H0z"/>
        </clipPath>
    </defs>
</svg>
