<svg width="24" height="24" viewBox="0 0 24 24" fill="none" xmlns="http://www.w3.org/2000/svg">
    <path d="M17.868 15.187h1.164c.965 0 1.747-.75 1.747-1.678v-7.83c0-.927-.782-1.68-1.747-1.68h-1.166c-.965 0-1.748.752-1.748 1.68v7.83c0 .926.783 1.678 1.748 1.678" stroke="#F4F4F4" stroke-width="1.2" stroke-linecap="round" stroke-linejoin="round"/>
    <path d="M4.042 12.17 5.3 5.73c.096-.495.36-.939.742-1.255A2.068 2.068 0 0 1 7.397 4h6.626c.556 0 1.089.227 1.482.63.393.402.614.948.614 1.517v6.441a2.986 2.986 0 0 1-.3 1.19 2.92 2.92 0 0 1-.749.958l-.87 5.368a.816.816 0 0 1-.42.589.771.771 0 0 1-.711 0l-.975-.493a3.186 3.186 0 0 1-1.461-1.536 3.291 3.291 0 0 1-.195-2.135l.44-1.783h-4.78c-.312 0-.619-.07-.9-.207a2.104 2.104 0 0 1-.725-.581 2.197 2.197 0 0 1-.43-1.787z" stroke="#F4F4F4" stroke-width="1.2" stroke-linecap="round" stroke-linejoin="round"/>
</svg>
